<?xml version="1.0" encoding="UTF-8"?>
<svg width="32px" height="28px" viewBox="0 0 32 28" version="1.1" xmlns="http://www.w3.org/2000/svg" xmlns:xlink="http://www.w3.org/1999/xlink">
    <!-- Generator: Sketch 54.1 (76490) - https://sketchapp.com -->
    <title>Shape</title>
    <desc>Created with Sketch.</desc>
    <g id="Design" stroke="none" stroke-width="1" fill="none" fill-rule="evenodd">
        <g id="Home" transform="translate(-704.000000, -45.000000)" fill="#0066FF" fill-rule="nonzero" stroke="#0066FF" stroke-width="1.13079533">
            <path d="M717.18432,46 L717.18432,47.1464968 C717.272076,47.1464968 727.847535,47.2916517 727.934406,47.2953012 C731.247776,47.4344962 733.891821,50.2019565 733.891821,53.5955414 L733.891821,57.3280255 L717.054278,57.3280255 L717.054278,46.7165605 C717.054278,46.3999642 716.931182,46 716.618922,46 L712.095741,46 C708.137957,46 705,49.2847134 705,53.2917197 L705,57.9528662 C705,58.2694626 705.253137,58.5261146 705.565398,58.5261146 L711.530343,58.5261146 C711.842604,58.5261146 712.095741,58.2694626 712.095741,57.9528662 C712.095741,57.6362699 711.842604,57.3796178 711.530343,57.3796178 L706.153411,57.3796178 L706.153411,53.2917197 C706.153411,49.8522293 708.816434,47.2898089 712.372786,47.2898089 L715.940445,47.2898089 L715.940445,71.4267516 C715.940445,71.7433479 716.193582,72 716.505842,72 L722.171127,72 C722.483388,72 722.736525,71.7433479 722.736525,71.4267516 L722.736525,64.0547771 C722.736525,63.7381807 722.483388,63.4815287 722.171127,63.4815287 C721.858867,63.4815287 721.605729,63.7381807 721.605729,64.0547771 L721.605729,70.8535032 L717.054278,70.8535032 L717.054278,58.4286624 L734.434602,58.4286624 C734.746863,58.4286624 735,58.1720104 735,57.855414 L735,53.5496815 C734.975637,49.5326702 731.819391,46.2722786 727.884456,46.1470116 C727.814031,46.1447697 717.25523,46.0002199 717.18432,46 Z" id="Shape"></path>
        </g>
    </g>
</svg>