<?xml version="1.0" encoding="UTF-8"?>
<svg width="20px" height="25px" viewBox="0 0 20 25" version="1.1" xmlns="http://www.w3.org/2000/svg" xmlns:xlink="http://www.w3.org/1999/xlink">
    <!-- Generator: Sketch 54.1 (76490) - https://sketchapp.com -->
    <title>Combined Shape</title>
    <desc>Created with Sketch.</desc>
    <g id="Design" stroke="none" stroke-width="1" fill="none" fill-rule="evenodd">
        <g id="Home" transform="translate(-710.000000, -520.000000)" fill="#000000">
            <path d="M720.171626,527.173251 C721.000921,527.173251 722.539934,526.01165 724.543227,526.01165 C727.991549,526.01165 729.348074,528.512067 729.348074,528.512067 C729.348074,528.512067 726.694871,529.894374 726.694871,533.248579 C726.694871,537.03245 730,538.336397 730,538.336397 C730,538.336397 727.689566,544.963284 724.568859,544.963284 C723.135477,544.963284 722.021207,543.978937 720.510929,543.978937 C718.971916,543.978937 717.44459,545 716.449896,545 C713.60018,545 710,538.713823 710,533.660832 C710,528.68928 713.047357,526.081303 715.905576,526.081303 C717.763701,526.081303 719.205627,527.173251 720.171626,527.173251 Z M721.035089,522.175559 C722.647009,520.010596 724.888003,520 724.888003,520 C724.888003,520 725.22126,522.035472 723.61998,523.996281 C721.910126,526.089989 719.966602,525.74739 719.966602,525.74739 C719.966602,525.74739 719.601707,524.100761 721.035089,522.175559 Z" id="Combined-Shape"></path>
        </g>
    </g>
</svg>